<svg width="34" height="36" viewBox="0 0 34 36" fill="none" xmlns="http://www.w3.org/2000/svg">
<path d="M17 36C26.3888 36 34 28.3888 34 19C34 9.61116 26.3888 2 17 2C7.61116 2 0 9.61116 0 19C0 28.3888 7.61116 36 17 36Z" fill="#F4900C"/>
<path d="M17 34C26.3888 34 34 26.3888 34 17C34 7.61116 26.3888 0 17 0C7.61116 0 0 7.61116 0 17C0 26.3888 7.61116 34 17 34Z" fill="#FFCC4D"/>
<path d="M17 32C24.732 32 31 25.732 31 18C31 10.268 24.732 4 17 4C9.26801 4 3 10.268 3 18C3 25.732 9.26801 32 17 32Z" fill="#FFE8B6"/>
<path d="M17 31C24.732 31 31 24.732 31 17C31 9.26801 24.732 3 17 3C9.26801 3 3 9.26801 3 17C3 24.732 9.26801 31 17 31Z" fill="#FFAC33"/>
<path d="M8.543 10.856C8.543 10.311 9.078 10.093 9.078 10.093L16.956 6.393L24.909 10.093C24.909 10.093 25.457 10.215 25.457 10.86V11.501H8.543V10.856Z" fill="#FFE8B6"/>
<path d="M24.929 12.836C24.929 12.252 24.424 11.779 23.802 11.779H10.129C9.506 11.779 9.072 12.252 9.072 12.836C9.072 13.233 9.276 13.575 9.601 13.756V14.422H11.715V13.893H13.829V14.422H15.943V13.893H18.057V14.422H20.171V13.893H22.285V14.422H24.4V13.729C24.717 13.541 24.929 13.212 24.929 12.836ZM26.514 24C26.514 24.2103 26.4305 24.412 26.2817 24.5607C26.133 24.7095 25.9313 24.793 25.721 24.793H8.279C8.06868 24.793 7.86698 24.7095 7.71826 24.5607C7.56955 24.412 7.486 24.2103 7.486 24C7.486 23.7897 7.56955 23.588 7.71826 23.4393C7.86698 23.2905 8.06868 23.207 8.279 23.207H25.722C26.159 23.207 26.514 23.562 26.514 24Z" fill="#F4900C"/>
<path d="M25.457 12.2C25.457 12.3403 25.4013 12.4749 25.3021 12.5741C25.2029 12.6733 25.0683 12.729 24.928 12.729H9.071C8.93632 12.7207 8.80988 12.6614 8.71744 12.5631C8.62501 12.4648 8.57354 12.3349 8.57354 12.2C8.57354 12.0651 8.62501 11.9352 8.71744 11.8369C8.80988 11.7386 8.93632 11.6793 9.071 11.671L24.928 11.674C24.9973 11.6737 25.066 11.6871 25.1301 11.7134C25.1942 11.7397 25.2525 11.7784 25.3016 11.8273C25.3507 11.8761 25.3897 11.9342 25.4164 11.9982C25.4431 12.0621 25.4569 12.1307 25.457 12.2ZM11.186 12.814H22.815V14H11.186V12.814Z" fill="#F4900C"/>
<path d="M11.714 20.829C11.714 21.413 11.398 21.886 11.009 21.886H10.304C9.915 21.886 9.599 21.413 9.599 20.829V12.815C9.599 12.231 9.915 11.758 10.304 11.758H11.009C11.398 11.758 11.714 12.231 11.714 12.815V20.829ZM24.4 20.829C24.4 21.413 24.085 21.886 23.695 21.886H22.99C22.601 21.886 22.285 21.413 22.285 20.829V12.815C22.285 12.231 22.6 11.758 22.99 11.758H23.695C24.084 11.758 24.4 12.231 24.4 12.815V20.829ZM15.943 20.829C15.943 21.413 15.627 21.886 15.238 21.886H14.533C14.144 21.886 13.828 21.413 13.828 20.829V12.815C13.828 12.231 14.144 11.758 14.533 11.758H15.238C15.627 11.758 15.943 12.231 15.943 12.815V20.829ZM20.171 20.829C20.171 21.413 19.855 21.886 19.466 21.886H18.762C18.373 21.886 18.057 21.413 18.057 20.829V12.815C18.057 12.231 18.373 11.758 18.762 11.758H19.466C19.855 11.758 20.171 12.231 20.171 12.815V20.829Z" fill="#FFD983"/>
<path d="M24.929 21.357C24.929 21.941 24.456 22.414 23.872 22.414H10.129C9.84867 22.414 9.57981 22.3026 9.38159 22.1044C9.18336 21.9062 9.072 21.6373 9.072 21.357C9.072 21.0767 9.18336 20.8078 9.38159 20.6096C9.57981 20.4114 9.84867 20.3 10.129 20.3H23.872C24.455 20.3 24.929 20.773 24.929 21.357Z" fill="#FFCC4D"/>
<path d="M25.986 22.414C25.986 22.998 25.513 23.471 24.929 23.471H9.071C8.79067 23.471 8.52181 23.3596 8.32359 23.1614C8.12536 22.9632 8.014 22.6943 8.014 22.414C8.014 22.1337 8.12536 21.8648 8.32359 21.6666C8.52181 21.4684 8.79167 21.357 9.072 21.357H24.928C25.512 21.357 25.986 21.83 25.986 22.414Z" fill="#FFD983"/>
<path d="M26.514 23.207C26.514 23.4173 26.4305 23.619 26.2817 23.7677C26.133 23.9165 25.9313 24 25.721 24H8.279C8.17486 24 8.07174 23.9795 7.97553 23.9396C7.87932 23.8998 7.7919 23.8414 7.71826 23.7677C7.64463 23.6941 7.58622 23.6067 7.54636 23.5105C7.50651 23.4143 7.486 23.3111 7.486 23.207C7.486 23.1029 7.50651 22.9997 7.54636 22.9035C7.58622 22.8073 7.64463 22.7199 7.71826 22.6463C7.7919 22.5726 7.87932 22.5142 7.97553 22.4744C8.07174 22.4345 8.17486 22.414 8.279 22.414H25.722C26.159 22.414 26.514 22.769 26.514 23.207Z" fill="#FFD983"/>
<path d="M24.929 12.286C24.929 11.702 24.424 11.229 23.802 11.229H10.129C9.506 11.229 9.072 11.702 9.072 12.286C9.072 12.683 9.276 13.025 9.601 13.206V13.872H11.715V13.343H13.829V13.872H15.943V13.343H18.057V13.872H20.171V13.343H22.285V13.872H24.4V13.179C24.717 12.991 24.929 12.662 24.929 12.286Z" fill="#FFCC4D"/>
<path d="M8.543 11.463C8.543 10.918 9.078 10.7 9.078 10.7L16.956 7L24.909 10.7C24.909 10.7 25.457 10.822 25.457 11.467V11.758H8.543V11.463Z" fill="#FFD983"/>
<path d="M17 8.343C17 8.343 11.545 10.914 11.001 11.146C10.456 11.377 10.638 11.757 11.002 11.757H22.972C23.534 11.757 23.401 11.328 22.955 11.096C22.509 10.865 17 8.343 17 8.343Z" fill="#FFAC33"/>
<path d="M25.457 11.757C25.457 11.8973 25.4013 12.0319 25.3021 12.1311C25.2029 12.2303 25.0693 12.286 24.929 12.286H9.072C8.93732 12.2777 8.80988 12.2184 8.71744 12.1201C8.62501 12.0218 8.57354 11.8919 8.57354 11.757C8.57354 11.6221 8.62501 11.4922 8.71744 11.3939C8.80988 11.2956 8.93632 11.2363 9.071 11.228L24.928 11.231C24.9973 11.2307 25.066 11.2441 25.1301 11.2704C25.1942 11.2967 25.2525 11.3354 25.3016 11.3843C25.3507 11.4331 25.3897 11.4912 25.4164 11.5552C25.4431 11.6191 25.4569 11.6877 25.457 11.757Z" fill="#FFD983"/>
</svg>
