<svg width="33" height="42" viewBox="0 0 33 42" fill="none" xmlns="http://www.w3.org/2000/svg">
<path d="M30 22.4359C30 29.6255 23.988 35.4066 16.726 34.9776C9.26274 34.5368 4.15432 27.4309 5.11624 20.0033C5.69839 15.4857 7.83772 11.6116 10.1663 8.60609C10.5711 8.0816 10.9866 12.3022 11.4021 11.8378C11.8187 11.3605 15.6807 4.74377 17.0236 2.41954C17.0813 2.31703 17.1607 2.22802 17.2563 2.15856C17.3519 2.0891 17.4614 2.04083 17.5775 2.01701C17.6936 1.9932 17.8135 1.9944 17.9291 2.02054C18.0447 2.04668 18.1533 2.09714 18.2474 2.1685C20.9451 4.18393 30 11.7542 30 22.4359Z" fill="#FF6723"/>
<path d="M26 25.3461C26 30.2391 22.0119 34.1721 17.1613 33.9942C11.9255 33.8053 8.33515 28.6872 9.10353 23.4153C10.213 15.8567 17.4775 11 17.4775 11C17.4775 11 26 16.698 26 25.3461Z" fill="#FFB02E"/>
</svg>
